<svg xmlns="http://www.w3.org/2000/svg" version="1.1" xmlns:xlink="http://www.w3.org/1999/xlink" xmlns:svgjs="http://svgjs.com/svgjs" width="1440" height="560" preserveAspectRatio="none" viewBox="0 0 1440 560"><g mask="url(&quot;#SvgjsMask1698&quot;)" fill="none"><use xlink:href="#SvgjsG1714" transform="translate(0, 0)" fill="rgba(225, 225, 225, 0.2)"></use><use xlink:href="#SvgjsG1714" transform="translate(720, 0)" fill="rgba(225, 225, 225, 0.2)"></use></g><defs><mask id="SvgjsMask1698"><rect width="1440" height="560" fill="#ffffff"></rect></mask><g id="SvgjsG1706"><path d="M6.498 9.304L12.139 3.663l1.565 1.566-5.641 5.641z"></path><path d="M6.8 0.457h2.541v8.028H6.8z"></path><path d="M8.072 10.876L2.429 5.238l1.563-1.566L9.636 9.313zM1.2 13.277h13.733v2.266H1.2z"></path><path d="M0.733 9.143h2.267v6.4h-2.267z m12.267 0h2.267v6.4h-2.267z"></path></g><g id="SvgjsG1703"><path d="M7.713 15.485C3.459 15.485 0 12.025 0 7.768 0 3.513 3.459 0.051 7.713 0.051S15.432 3.513 15.432 7.768c0 4.257-3.465 7.716-7.719 7.717z m0-1.91c3.201 0 5.81-2.604 5.81-5.809 0-3.199-2.61-5.807-5.81-5.807-3.202 0-5.804 2.609-5.804 5.807-0.001 3.206 2.602 5.809 5.804 5.809z"></path><path d="M7.753 8.787a0.574 0.574 0 0 1-0.554-0.042 0.578 0.578 0 0 1-0.259-0.399L6.931 3.862a0.58 0.58 0 0 1 1.162 0v3.478l2.975-1.4a0.578 0.578 0 0 1 0.773 0.275c0.138 0.292 0.011 0.637-0.276 0.774l-3.81 1.798z"></path></g><g id="SvgjsG1702"><path d="M11.986 8.245a46.749 46.749 0 0 1-0.521-0.411c-0.146-0.116-0.293-0.233-0.44-0.348-0.88-0.688-1.797-1.316-2.816-1.407A2.815 2.815 0 0 0 7.954 6.067c-0.086 0-0.171 0.011-0.255 0.018-1.022 0.093-1.942 0.717-2.826 1.408l0.093 0.073c0.108 0.085 0.213 0.168 0.32 0.252C6.165 7.137 7.021 6.576 7.954 6.576c0.93 0 1.784 0.558 2.66 1.236a35.098 35.098 0 0 1 0.535 0.421c0.142 0.113 0.283 0.226 0.426 0.338C12.532 9.32 13.531 10 14.658 10c0.437 0 0.854-0.104 1.257-0.273v-0.557c-0.409 0.197-0.825 0.32-1.257 0.32-0.934 0-1.792-0.563-2.672-1.245z"></path><path d="M11.574 7.496c0.029 0.023 0.059 0.046 0.088 0.07 0.109 0.087 0.216 0.17 0.325 0.256 0.318-0.246 0.635-0.476 0.952-0.67v1.37c0.17 0.111 0.34 0.214 0.51 0.301V6.878c0.315-0.147 0.634-0.248 0.96-0.283v2.537c0.078 0.01 0.157 0.018 0.237 0.018 0.091 0 0.183-0.009 0.273-0.021V6.592c0.34 0.037 0.67 0.144 0.996 0.3V6.336C15.514 6.17 15.099 6.067 14.664 6.067c-1.128 0-2.13 0.68-3.09 1.429z m-7.248 1.08c-0.034-0.027-0.068-0.053-0.102-0.08-0.104-0.083-0.207-0.162-0.31-0.245-0.877 0.678-1.733 1.238-2.665 1.238C0.82 9.49 0.407 9.36 0 9.152v0.562C0.401 9.891 0.815 10 1.249 10c1.124 0 2.122-0.677 3.077-1.423z"></path><path d="M0.989 9.133c0.084 0.011 0.17 0.019 0.254 0.02 0.086 0 0.171-0.008 0.256-0.02V6.592c0.329 0.035 0.65 0.136 0.967 0.285-0.002 0.012-0.007 0.023-0.007 0.036v1.903a5.818 5.818 0 0 0 0.51-0.303V7.152c0.487 0.3 0.971 0.684 1.467 1.08C5.525 9.101 6.652 10 7.948 10c1.123 0 2.121-0.675 3.078-1.42l-0.106-0.084c-0.103-0.082-0.205-0.161-0.306-0.242-0.313 0.242-0.622 0.466-0.934 0.658V7.564A5.816 5.816 0 0 0 9.17 7.261v1.893c0 0.01 0.004 0.019 0.005 0.029-0.316 0.149-0.637 0.252-0.965 0.288V6.937a1.97 1.97 0 0 0-0.267-0.02c-0.082 0-0.163 0.008-0.243 0.017v2.541c-0.33-0.035-0.652-0.136-0.969-0.283 0.002-0.013 0.006-0.024 0.006-0.039V7.248a5.629 5.629 0 0 0-0.51 0.302v1.368c-0.49-0.299-0.976-0.686-1.474-1.083C3.666 6.966 2.539 6.067 1.243 6.067c-0.432 0-0.844 0.096-1.243 0.251v0.55c0.324-0.144 0.652-0.244 0.989-0.278V9.133z"></path></g><g id="SvgjsG1699"><path d="M2.524 8.637H0.014V7.308h2.51v1.329zM3.656 4.576L1.884 2.804l0.935-0.935 1.772 1.772-0.935 0.935z m0 6.817l0.935 0.935-1.772 1.773-0.934-0.936 1.771-1.772z m4.997-8.884h-1.33V-0.002h1.33v2.511z m-1.33 10.952h1.33v2.51h-1.33v-2.509zM12.344 4.576l-0.96-0.935 1.796-1.772 0.935 0.935-1.772 1.772z m0 6.792l1.771 1.797-0.935 0.936-1.771-1.774 0.936-0.96z m3.643-4.06v1.329h-2.51V7.308h2.509z"></path><path d="M3.702 7.984a4.184 4.184 0 1 0 8.368 0 4.184 4.184 0 1 0-8.368 0"></path></g><g id="SvgjsG1700"><path d="M15.233 9.431c0.295 0 0.569-0.239 0.61-0.532 0 0 0.056-0.411 0.056-0.899s-0.056-0.899-0.056-0.899c-0.041-0.292-0.315-0.531-0.61-0.53h-1.524c-0.295 0-0.602-0.188-0.681-0.418s-0.188-0.967 0.021-1.176l1.078-1.077c0.209-0.209 0.225-0.565 0.036-0.792l-1.268-1.268c-0.227-0.189-0.583-0.173-0.792 0.036l-1.078 1.077c-0.208 0.209-0.556 0.293-0.772 0.187s-0.822-0.552-0.821-0.847V0.767c0-0.295-0.239-0.569-0.531-0.61 0 0-0.411-0.057-0.9-0.056s-0.899 0.057-0.899 0.056c-0.293 0.04-0.532 0.315-0.532 0.61v1.524c0 0.295-0.188 0.601-0.418 0.681s-0.967 0.188-1.176-0.021l-1.078-1.078C3.689 1.665 3.333 1.649 3.107 1.837l-1.268 1.268c-0.189 0.227-0.173 0.583 0.036 0.792l1.077 1.078c0.209 0.209 0.293 0.556 0.187 0.772s-0.552 0.822-0.847 0.822H0.767c-0.295 0-0.569 0.239-0.61 0.531 0 0-0.057 0.411-0.056 0.899s0.057 0.899 0.056 0.9c0.04 0.293 0.315 0.532 0.61 0.532h1.525c0.295 0 0.601 0.188 0.681 0.417 0.079 0.23 0.188 0.967-0.02 1.176l-1.078 1.077C1.667 12.311 1.651 12.667 1.84 12.893l1.267 1.268c0.227 0.189 0.583 0.173 0.792-0.036l1.077-1.077c0.209-0.208 0.556-0.292 0.772-0.187s0.821 0.553 0.822 0.848v1.524c0 0.295 0.239 0.569 0.532 0.61 0 0 0.411 0.057 0.899 0.057s0.899-0.056 0.899-0.057c0.293-0.04 0.531-0.315 0.532-0.609v-1.524c0-0.295 0.188-0.602 0.418-0.681 0.23-0.079 0.967-0.188 1.176 0.021l1.077 1.077c0.209 0.209 0.565 0.225 0.792 0.036l1.268-1.267c0.189-0.227 0.173-0.583-0.036-0.792l-1.078-1.077c-0.209-0.209-0.293-0.557-0.186-0.773 0.106-0.216 0.552-0.822 0.847-0.822h1.525zM8 10.892c-1.597 0-2.891-1.294-2.891-2.892 0-1.596 1.295-2.891 2.891-2.891S10.892 6.404 10.892 8 9.597 10.892 8 10.892z"></path></g><g id="SvgjsG1713"><path d="M8 2.022C3.815 2.022 0.422 4.579 0.422 7.733c0 1.544 0.814 2.944 2.135 3.972l0.003 3.427 3.961-1.798c0.479 0.071 0.973 0.11 1.48 0.11 4.185 0 7.578-2.557 7.578-5.711 0-3.154-3.392-5.711-7.577-5.711zM4.81 8.933a1.067 1.067 0 1 1 0-2.133 1.067 1.067 0 0 1 0 2.133z m3.186 0a1.067 1.067 0 1 1 0-2.133 1.067 1.067 0 0 1 0 2.133z m3.143 0c-0.589 0-1.067-0.478-1.067-1.066s0.477-1.067 1.067-1.067 1.067 0.478 1.067 1.067a1.067 1.067 0 0 1-1.067 1.066z"></path></g><g id="SvgjsG1705"><path d="M1.316 13.81h14.019V3.175H1.316v10.635z m12.302-9.643L9.143 8.635c-0.457 0.459-1.269 0.448-1.735-0.018l-4.444-4.45h10.648z m-11.31 0.693l3.626 3.638-3.637 3.644 0.007-7.278z m0.654 7.97l3.641-3.635 0.156 0.149c0.86 0.818 2.228 0.818 3.049 0l0.156-0.156 3.663 3.644h-10.667z m11.353-0.693L10.677 8.501 14.311 4.862V12.142z" fill-rule="evenodd"></path></g><g id="SvgjsG1712"><path d="M8 1.076C3.594 1.076 0.023 3.767 0.023 7.088c0 1.625 0.857 3.099 2.248 4.181l0.003 3.607 4.168-1.892c0.504 0.075 1.025 0.115 1.558 0.116 4.406 0 7.976-2.692 7.976-6.012C15.976 3.767 12.406 1.076 8 1.076z" fill-rule="evenodd"></path></g><g id="SvgjsG1701"><path d="M5.876 2.963c0.233-0.778-0.203-1.601-0.983-1.839-0.776-0.24-1.601 0.196-1.842 0.977-0.238 0.781 0.203 1.603 0.98 1.841 0.781 0.241 1.605-0.198 1.845-0.979"></path><path d="M8.637 7.498l-0.559-3.452L11.494 2.048c0.162-0.09 0.289-0.236 0.343-0.42A0.712 0.712 0 0 0 11.358 0.748a0.708 0.708 0 0 0-0.573 0.079L5.916 3.686c-0.171 0.09-0.319 0.217-0.446 0.365l-2.054 2.756-2.827-0.337a0.707 0.707 0 0 0-0.416 0.383 0.704 0.704 0 0 0 0.365 0.929 0.669 0.669 0 0 0 0.462 0.037l2.878 0.327a0.724 0.724 0 0 0 0.276-0.189l1.168-1.467 0.559 3.167A1.58 1.58 0 0 0 6.706 10.707l2.509 0.749 0.371 2.883a0.922 0.922 0 0 0 0.601 0.732c0.478 0.171 1.003-0.083 1.169-0.562 0.053-0.143 0.062-0.3 0.041-0.446l-0.453-3.527a0.931 0.931 0 0 0-0.455-0.624l-1.562-0.469 2.585-1.566L14.671 9.276c0.02 0.009 0.039 0.018 0.058 0.028 0.478 0.166 1.002-0.083 1.169-0.562a0.92 0.92 0 0 0-0.478-1.136l-3.602-1.606c-0.019-0.005-0.03-0.014-0.048-0.018-0.259-0.09-0.534-0.058-0.753 0.062l-2.381 1.454h0.001z"></path></g><g id="SvgjsG1704"><path d="M10.336 4.978a1.109 1.109 0 0 0-0.8-0.333h-2.834a1.09 1.09 0 0 0-0.8 0.333L3.063 7.822a0.693 0.693 0 1 0 0.999 0.955l2.205-2.206v2.949H3.794c-0.457 0-0.823 0.366-0.823 0.823 0 0.233 0.091 0.443 0.252 0.594l2.784 2.789a0.839 0.839 0 0 0 1.417-0.892l-1.586-1.588 0.032 0.004h4.564l-1.593 1.587c-0.229 0.4-0.091 0.914 0.306 1.147a0.846 0.846 0 0 0 1.12-0.256l2.782-2.789a0.8 0.8 0 0 0 0.252-0.594c0-0.457-0.366-0.823-0.823-0.823H10.011V6.606l2.165 2.176a0.69 0.69 0 0 0 0.999-0.956L10.336 4.978zM8.146 4.354a1.353 1.353 0 1 0 0-2.706 1.353 1.353 0 0 0 0 2.709"></path></g><g id="SvgjsG1709"><path d="M7.394 7.981c-0.294 0.274-2.653 2.562-2.653 2.562l0.629 0.621S7.466 9.23 7.78 8.938c0.078-0.072 0.21-0.21 0.454-0.21h7.147V7.739H7.986c-0.216 0-0.421 0.085-0.592 0.242zM11.628 2.602c0.838 0 1.295-0.58 1.295-1.295 0-0.715-0.58-1.294-1.295-1.295a1.295 1.295 0 0 0 0 2.59zM9.707 4.828h0.434l-0.636 2.286H13.75l-0.636-2.286h0.434l0.66 2.286h1.123L14.429 4.08c-0.119-0.419-0.649-1.161-1.567-1.161H10.392c-0.917 0-1.446 0.742-1.566 1.161l-0.901 3.034h1.123l0.659-2.286zM6.035 6.994l-0.55-1.026-0.59-1.1s-0.067-0.101-0.191-0.041c-0.112 0.054-0.061 0.18-0.061 0.18l0.378 0.722 0.235 0.449-0.271-0.122c-0.481-0.217-0.746-0.309-0.852-0.357-0.019-0.009-0.112-0.06-0.157-0.157-0.126-0.282-0.664-1.643-0.784-1.944-0.102-0.255-0.354-0.616-0.871-0.745-0.589-0.146-1.182 0.226-1.323 0.817l-0.803 3.386C0.123 7.329 0 8.068 0 8.38s0.005 6.615 0.005 6.614c0.004 0.558 0.407 1.008 0.964 1.006 0.557-0.002 0.938-0.456 0.936-1.013 0 0 0-3.602-0.001-5.604l0.857-3.617c0.1 0.244 0.224 0.542 0.264 0.614 0.097 0.169 0.192 0.285 0.387 0.377 0 0 1.122 0.464 1.556 0.662a0.622 0.622 0 0 0 0.71-0.197l0.06-0.124 0.021 0.04s0.128 0.225 0.317 0.235c0.054-0.172-0.04-0.379-0.041-0.379z"></path><path d="M1.711 1.295a1.296 1.296 0 1 0 2.591 0 1.296 1.296 0 1 0-2.591 0"></path><path d="M4.885 9.748l2.524-2.349-0.328-0.352L4.557 9.396z"></path></g><g id="SvgjsG1708"><path d="M9.531 2.655a1.328 1.328 0 0 0 1.327-1.328C10.859 0.593 10.264-0.002 9.531 0a1.324 1.324 0 0 0-1.328 1.327c-0.002 0.733 0.594 1.328 1.328 1.328zM7.821 5.099l0.008 10.145c0.002 1.012 1.495 1.003 1.491-0.024l0.008-5.903h0.289v5.896c-0.003 1.032 1.507 1.058 1.507 0.031V5.052h0.266v3.64c-0.004 0.875 1.181 0.875 1.179 0.015V4.733c0.003-1.073-0.794-1.703-1.632-1.703h-2.367c-0.56 0-0.967 0.221-1.312 0.711l-1.195 1.741H3.994c-0.837 0-0.79 1.182-0.015 1.18H6.368c0.186 0.003 0.414-0.067 0.547-0.266l0.905-1.296z" fill-rule="evenodd"></path></g><g id="SvgjsG1711"><path d="M5.16 3.78c0.71-0.084 1.215-0.729 1.131-1.44-0.084-0.71-0.73-1.215-1.44-1.131a1.296 1.296 0 0 0-1.131 1.441c0.088 0.71 0.728 1.215 1.44 1.13M15.808 9.886L10.459 7.169l-1.341-1.726-0.016-0.019c-0.182-0.169-0.465-0.154-0.634 0.031v0.003a0.446 0.446 0 0 0-0.049 0.505l0.994 1.284 0.004 0.011-0.825 1.891-2.19-0.546-0.095-0.784 1.799-0.217a0.569 0.569 0 0 0 0.241-0.069 0.613 0.613 0 0 0 0.256-0.825c-0.123-0.23-0.368-0.352-0.609-0.325l-1.835 0.221-0.162-1.36c-0.088-0.706-0.734-1.215-1.442-1.131-0.709 0.089-1.217 0.734-1.132 1.445l0.381 3.144c0.047 0.401 0.286 0.749 0.603 0.951L1.527 9.997 0.629 12.22c0.035-0.015 0.073-0.019 0.104-0.033a2.84 2.84 0 0 1 1.188-0.264c0.407 0 0.816 0.091 1.181 0.26 0.233 0.106 0.489 0.16 0.738 0.16 0.25 0 0.502-0.054 0.731-0.157a2.821 2.821 0 0 1 1.188-0.263c0.405 0 0.814 0.091 1.178 0.26 0.237 0.106 0.493 0.16 0.741 0.16 0.252 0 0.501-0.054 0.733-0.157 0.37-0.172 0.782-0.264 1.188-0.263s0.814 0.091 1.177 0.26c0.088 0.037 0.184 0.065 0.278 0.091 1.471-0.386 4.077-1.131 4.781-1.761 0.205-0.184 0.245-0.492-0.027-0.627M0 14.94c0.336 0 0.661-0.076 0.947-0.206a2.312 2.312 0 0 1 0.974-0.217c0.348 0 0.677 0.08 0.976 0.217A2.278 2.278 0 0 0 3.84 14.94c0.334 0 0.655-0.076 0.944-0.206a2.315 2.315 0 0 1 0.975-0.218c0.345 0 0.677 0.08 0.974 0.218 0.287 0.13 0.608 0.206 0.945 0.206s0.657-0.076 0.947-0.206a2.31 2.31 0 0 1 0.974-0.218c0.345 0 0.677 0.08 0.97 0.218 0.291 0.13 0.612 0.206 0.949 0.206a2.28 2.28 0 0 0 0.943-0.206 2.329 2.329 0 0 1 0.975-0.218c0.348 0 0.68 0.08 0.973 0.218a2.314 2.314 0 0 0 0.95 0.206v-1.417c-0.337 0-0.662-0.076-0.95-0.207a2.294 2.294 0 0 0-0.973-0.213c-0.344 0-0.675 0.076-0.974 0.214a2.28 2.28 0 0 1-0.944 0.206c-0.336 0-0.657-0.076-0.949-0.207a2.292 2.292 0 0 0-0.97-0.213c-0.346 0-0.678 0.076-0.973 0.213a2.318 2.318 0 0 1-0.948 0.206 2.294 2.294 0 0 1-0.944-0.206 2.322 2.322 0 0 0-0.975-0.214c-0.346 0-0.679 0.076-0.974 0.214A2.308 2.308 0 0 1 3.84 13.523a2.277 2.277 0 0 1-0.943-0.207 2.325 2.325 0 0 0-0.976-0.213 2.31 2.31 0 0 0-0.975 0.213A2.296 2.296 0 0 1 0 13.523v1.417z"></path></g><g id="SvgjsG1710"><path d="M12.346 8.402l-4.199-0.691 0.602-0.429 1.009 0.14 1.007-0.14zM9.758 0.467c0.842 0 1.524 0.682 1.524 1.525 0 0.842-0.537 1.524-1.524 1.524-0.842 0-1.525-0.682-1.525-1.524 0-0.842 0.683-1.524 1.525-1.525z m0.379 11.017v3.684A0.832 0.832 0 0 0 10.97 16a0.832 0.832 0 0 0 0.832-0.832V11.484c0-0.459-0.372-0.832-0.832-0.832a0.833 0.833 0 0 0-0.833 0.832z m5.099 2.104a0.484 0.484 0 0 1-0.483 0.483h-2.552v-2.413h1.104V9.248a0.483 0.483 0 0 1 0.482-0.482h0.966a0.484 0.484 0 0 1 0.483 0.482v4.34z m-5.497 0.483H4.784a0.483 0.483 0 0 1-0.482-0.483V9.247c0-0.266 0.216-0.482 0.482-0.482h0.966a0.483 0.483 0 0 1 0.483 0.482v2.411h3.506v2.413zM7.13 8.866a0.833 0.833 0 0 0 0.686 0.956l3.635 0.599a0.833 0.833 0 0 0 0.956-0.686c0.075-0.453-0.232-0.882-0.686-0.956L8.086 8.18a0.833 0.833 0 0 0-0.956 0.685z m-4.099-4.563C1.845 4.303 0.88 3.338 0.88 2.152S1.845 0 3.031 0s2.152 0.965 2.152 2.152-0.966 2.151-2.152 2.151z m0-0.533c0.892 0 1.62-0.726 1.619-1.619 0-0.892-0.727-1.619-1.619-1.619-0.893 0-1.618 0.727-1.619 1.619 0 0.893 0.725 1.619 1.619 1.619z"></path><path d="M3.042 2.436a0.16 0.16 0 0 1-0.155-0.012 0.16 0.16 0 0 1-0.072-0.111L2.813 1.062a0.162 0.162 0 0 1 0.323 0v0.97l0.83-0.39a0.162 0.162 0 1 1 0.138 0.292l-1.062 0.502z m6.716 2.292l1.976-0.321v1.389l0.976 0.734c0.094 0.094 0.056 0.202 0.033 0.233-0.056 0.074-0.16 0.088-0.233 0.033l-1.231-0.931a0.565 0.565 0 0 0-0.652 0.924l2.103 1.478c0.098 0.069 0.237 0.116 0.376 0.116 0.118 0 0.257-0.049 0.361-0.123 0.221-0.157 0.302-0.435 0.226-0.691L12.912 5.26c-0.208-0.573-0.735-1.249-1.525-1.249H8.128c-0.79 0-1.316 0.675-1.525 1.249l-0.782 2.309c-0.075 0.256 0.007 0.534 0.228 0.691 0.103 0.074 0.242 0.123 0.36 0.123 0.139 0 0.278-0.046 0.376-0.116l2.103-1.478a0.565 0.565 0 0 0-0.652-0.924l-1.232 0.931a0.167 0.167 0 0 1-0.232-0.033c-0.022-0.03-0.061-0.138 0.033-0.233 0 0 0.661-0.497 0.976-0.734v-1.389l1.977 0.322z"></path></g><g id="SvgjsG1707"><path d="M7.717 12.464a0.453 0.453 0 0 0-0.64 0L4.945 14.594l-0.265-0.265 2.859-2.855a0.453 0.453 0 1 0-0.641-0.64L4.04 13.69l-0.265-0.266 3.325-3.322a0.453 0.453 0 0 0 0.001-0.641 0.452 0.452 0 0 0-0.64 0L3.135 12.783l-0.265-0.265L5.48 9.91a0.453 0.453 0 0 0 0-0.64 0.452 0.452 0 0 0-0.64 0L1.482 12.621c-0.002-0.324-0.005-0.908-0.005-1.435 0-0.732-0.925-0.84-0.971-0.79C0.461 10.45 0 15.533 0 15.533h5.294l0.294-0.295-0.003-0.003 2.132-2.131a0.453 0.453 0 0 0 0-0.642z"></path><path d="M10.099 0C7.423 0 4.956 2.008 4.443 4.219c-0.115 0.493-0.244 1.777-0.244 1.777l-1.23 3.1c-0.024 0.057-0.037 0.119-0.037 0.185a0.475 0.475 0 0 0 0.475 0.475h0.42l0.75-0.75a0.826 0.826 0 0 1 1.167 0.001 0.826 0.826 0 0 1 0.226 0.42l0.23-0.229a0.824 0.824 0 0 1 1.166 0c0.316 0.316 0.32 0.823 0.016 1.147a0.825 0.825 0 0 1 0.422 1.392l-0.24 0.239a0.818 0.818 0 0 1 0.418 0.224 0.826 0.826 0 0 1 0 1.166l-0.531 0.532v1.635H13.747V10.529C15.117 9.451 16 7.776 16 5.896 16 2.639 13.36 0 10.099 0z m-4.448 7.173a0.658 0.658 0 0 1 0-1.316 0.658 0.658 0 0 1 0.658 0.659 0.658 0.658 0 0 1-0.658 0.658z m3.08 1.534c0.164 0 0.3 0.135 0.3 0.298a0.301 0.301 0 0 1-0.3 0.3 0.3 0.3 0 0 1-0.3-0.3c0-0.164 0.134-0.299 0.3-0.298zM8.552 10.579a0.3 0.3 0 0 1 0-0.6 0.301 0.301 0 0 1 0.3 0.301 0.3 0.3 0 0 1-0.3 0.299z m0.64 1.289a0.45 0.45 0 0 1-0.412-0.486 0.45 0.45 0 0 1 0.487-0.408 0.448 0.448 0 0 1 0.408 0.485c-0.022 0.248-0.238 0.432-0.483 0.409z m0.432-1.795c-0.251 0-0.45-0.201-0.45-0.449s0.199-0.446 0.45-0.446c0.246 0 0.446 0.2 0.446 0.448s-0.2 0.448-0.446 0.448z m0.637 0.939a0.3 0.3 0 0 1-0.303-0.3 0.301 0.301 0 0 1 0.301-0.298 0.299 0.299 0 0 1 0 0.598z m0.668-1.741h-0.105V8.736l0.103-0.001c0.668-0.001 1.212-0.545 1.215-1.212-0.002-0.667-0.547-1.211-1.214-1.213l-0.104-0.001V5.776h0.105c0.965 0 1.749 0.783 1.748 1.747s-0.784 1.747-1.748 1.747z"></path></g><g id="SvgjsG1714"><use xlink:href="#SvgjsG1699" transform="translate(0, 0) scale(2)" fill="rgba(225, 225, 225, 0.2)"></use><use xlink:href="#SvgjsG1700" transform="translate(0, 72) scale(2)" fill="rgba(225, 225, 225, 0.2)"></use><use xlink:href="#SvgjsG1701" transform="translate(0, 144) scale(2)" fill="rgba(225, 225, 225, 0.2)"></use><use xlink:href="#SvgjsG1699" transform="translate(0, 216) scale(2)" fill="rgba(225, 225, 225, 0.2)"></use><use xlink:href="#SvgjsG1702" transform="translate(0, 288) scale(2)" fill="rgba(225, 225, 225, 0.2)"></use><use xlink:href="#SvgjsG1703" transform="translate(0, 360) scale(2)" fill="rgba(225, 225, 225, 0.2)"></use><use xlink:href="#SvgjsG1702" transform="translate(0, 432) scale(2)" fill="rgba(225, 225, 225, 0.2)"></use><use xlink:href="#SvgjsG1701" transform="translate(0, 504) scale(2)" fill="rgba(225, 225, 225, 0.2)"></use><use xlink:href="#SvgjsG1704" transform="translate(72, 0) scale(2)" fill="rgba(225, 225, 225, 0.2)"></use><use xlink:href="#SvgjsG1705" transform="translate(72, 72) scale(2)" fill="rgba(225, 225, 225, 0.2)"></use><use xlink:href="#SvgjsG1706" transform="translate(72, 144) scale(2)" fill="rgba(225, 225, 225, 0.2)"></use><use xlink:href="#SvgjsG1704" transform="translate(72, 216) scale(2)" fill="rgba(225, 225, 225, 0.2)"></use><use xlink:href="#SvgjsG1707" transform="translate(72, 288) scale(2)" fill="rgba(225, 225, 225, 0.2)"></use><use xlink:href="#SvgjsG1703" transform="translate(72, 360) scale(2)" fill="rgba(225, 225, 225, 0.2)"></use><use xlink:href="#SvgjsG1702" transform="translate(72, 432) scale(2)" fill="rgba(225, 225, 225, 0.2)"></use><use xlink:href="#SvgjsG1708" transform="translate(72, 504) scale(2)" fill="rgba(225, 225, 225, 0.2)"></use><use xlink:href="#SvgjsG1708" transform="translate(144, 0) scale(2)" fill="rgba(225, 225, 225, 0.2)"></use><use xlink:href="#SvgjsG1708" transform="translate(144, 72) scale(2)" fill="rgba(225, 225, 225, 0.2)"></use><use xlink:href="#SvgjsG1705" transform="translate(144, 144) scale(2)" fill="rgba(225, 225, 225, 0.2)"></use><use xlink:href="#SvgjsG1709" transform="translate(144, 216) scale(2)" fill="rgba(225, 225, 225, 0.2)"></use><use xlink:href="#SvgjsG1710" transform="translate(144, 288) scale(2)" fill="rgba(225, 225, 225, 0.2)"></use><use xlink:href="#SvgjsG1711" transform="translate(144, 360) scale(2)" fill="rgba(225, 225, 225, 0.2)"></use><use xlink:href="#SvgjsG1701" transform="translate(144, 432) scale(2)" fill="rgba(225, 225, 225, 0.2)"></use><use xlink:href="#SvgjsG1705" transform="translate(144, 504) scale(2)" fill="rgba(225, 225, 225, 0.2)"></use><use xlink:href="#SvgjsG1703" transform="translate(216, 0) scale(2)" fill="rgba(225, 225, 225, 0.2)"></use><use xlink:href="#SvgjsG1699" transform="translate(216, 72) scale(2)" fill="rgba(225, 225, 225, 0.2)"></use><use xlink:href="#SvgjsG1704" transform="translate(216, 144) scale(2)" fill="rgba(225, 225, 225, 0.2)"></use><use xlink:href="#SvgjsG1708" transform="translate(216, 216) scale(2)" fill="rgba(225, 225, 225, 0.2)"></use><use xlink:href="#SvgjsG1703" transform="translate(216, 288) scale(2)" fill="rgba(225, 225, 225, 0.2)"></use><use xlink:href="#SvgjsG1702" transform="translate(216, 360) scale(2)" fill="rgba(225, 225, 225, 0.2)"></use><use xlink:href="#SvgjsG1706" transform="translate(216, 432) scale(2)" fill="rgba(225, 225, 225, 0.2)"></use><use xlink:href="#SvgjsG1709" transform="translate(216, 504) scale(2)" fill="rgba(225, 225, 225, 0.2)"></use><use xlink:href="#SvgjsG1706" transform="translate(288, 0) scale(2)" fill="rgba(225, 225, 225, 0.2)"></use><use xlink:href="#SvgjsG1705" transform="translate(288, 72) scale(2)" fill="rgba(225, 225, 225, 0.2)"></use><use xlink:href="#SvgjsG1703" transform="translate(288, 144) scale(2)" fill="rgba(225, 225, 225, 0.2)"></use><use xlink:href="#SvgjsG1711" transform="translate(288, 216) scale(2)" fill="rgba(225, 225, 225, 0.2)"></use><use xlink:href="#SvgjsG1710" transform="translate(288, 288) scale(2)" fill="rgba(225, 225, 225, 0.2)"></use><use xlink:href="#SvgjsG1709" transform="translate(288, 360) scale(2)" fill="rgba(225, 225, 225, 0.2)"></use><use xlink:href="#SvgjsG1703" transform="translate(288, 432) scale(2)" fill="rgba(225, 225, 225, 0.2)"></use><use xlink:href="#SvgjsG1711" transform="translate(288, 504) scale(2)" fill="rgba(225, 225, 225, 0.2)"></use><use xlink:href="#SvgjsG1712" transform="translate(360, 0) scale(2)" fill="rgba(225, 225, 225, 0.2)"></use><use xlink:href="#SvgjsG1699" transform="translate(360, 72) scale(2)" fill="rgba(225, 225, 225, 0.2)"></use><use xlink:href="#SvgjsG1699" transform="translate(360, 144) scale(2)" fill="rgba(225, 225, 225, 0.2)"></use><use xlink:href="#SvgjsG1701" transform="translate(360, 216) scale(2)" fill="rgba(225, 225, 225, 0.2)"></use><use xlink:href="#SvgjsG1703" transform="translate(360, 288) scale(2)" fill="rgba(225, 225, 225, 0.2)"></use><use xlink:href="#SvgjsG1700" transform="translate(360, 360) scale(2)" fill="rgba(225, 225, 225, 0.2)"></use><use xlink:href="#SvgjsG1707" transform="translate(360, 432) scale(2)" fill="rgba(225, 225, 225, 0.2)"></use><use xlink:href="#SvgjsG1702" transform="translate(360, 504) scale(2)" fill="rgba(225, 225, 225, 0.2)"></use><use xlink:href="#SvgjsG1705" transform="translate(432, 0) scale(2)" fill="rgba(225, 225, 225, 0.2)"></use><use xlink:href="#SvgjsG1713" transform="translate(432, 72) scale(2)" fill="rgba(225, 225, 225, 0.2)"></use><use xlink:href="#SvgjsG1700" transform="translate(432, 144) scale(2)" fill="rgba(225, 225, 225, 0.2)"></use><use xlink:href="#SvgjsG1700" transform="translate(432, 216) scale(2)" fill="rgba(225, 225, 225, 0.2)"></use><use xlink:href="#SvgjsG1713" transform="translate(432, 288) scale(2)" fill="rgba(225, 225, 225, 0.2)"></use><use xlink:href="#SvgjsG1701" transform="translate(432, 360) scale(2)" fill="rgba(225, 225, 225, 0.2)"></use><use xlink:href="#SvgjsG1705" transform="translate(432, 432) scale(2)" fill="rgba(225, 225, 225, 0.2)"></use><use xlink:href="#SvgjsG1703" transform="translate(432, 504) scale(2)" fill="rgba(225, 225, 225, 0.2)"></use><use xlink:href="#SvgjsG1710" transform="translate(504, 0) scale(2)" fill="rgba(225, 225, 225, 0.2)"></use><use xlink:href="#SvgjsG1705" transform="translate(504, 72) scale(2)" fill="rgba(225, 225, 225, 0.2)"></use><use xlink:href="#SvgjsG1702" transform="translate(504, 144) scale(2)" fill="rgba(225, 225, 225, 0.2)"></use><use xlink:href="#SvgjsG1710" transform="translate(504, 216) scale(2)" fill="rgba(225, 225, 225, 0.2)"></use><use xlink:href="#SvgjsG1708" transform="translate(504, 288) scale(2)" fill="rgba(225, 225, 225, 0.2)"></use><use xlink:href="#SvgjsG1701" transform="translate(504, 360) scale(2)" fill="rgba(225, 225, 225, 0.2)"></use><use xlink:href="#SvgjsG1701" transform="translate(504, 432) scale(2)" fill="rgba(225, 225, 225, 0.2)"></use><use xlink:href="#SvgjsG1702" transform="translate(504, 504) scale(2)" fill="rgba(225, 225, 225, 0.2)"></use><use xlink:href="#SvgjsG1699" transform="translate(576, 0) scale(2)" fill="rgba(225, 225, 225, 0.2)"></use><use xlink:href="#SvgjsG1699" transform="translate(576, 72) scale(2)" fill="rgba(225, 225, 225, 0.2)"></use><use xlink:href="#SvgjsG1712" transform="translate(576, 144) scale(2)" fill="rgba(225, 225, 225, 0.2)"></use><use xlink:href="#SvgjsG1709" transform="translate(576, 216) scale(2)" fill="rgba(225, 225, 225, 0.2)"></use><use xlink:href="#SvgjsG1700" transform="translate(576, 288) scale(2)" fill="rgba(225, 225, 225, 0.2)"></use><use xlink:href="#SvgjsG1711" transform="translate(576, 360) scale(2)" fill="rgba(225, 225, 225, 0.2)"></use><use xlink:href="#SvgjsG1699" transform="translate(576, 432) scale(2)" fill="rgba(225, 225, 225, 0.2)"></use><use xlink:href="#SvgjsG1701" transform="translate(576, 504) scale(2)" fill="rgba(225, 225, 225, 0.2)"></use><use xlink:href="#SvgjsG1712" transform="translate(648, 0) scale(2)" fill="rgba(225, 225, 225, 0.2)"></use><use xlink:href="#SvgjsG1700" transform="translate(648, 72) scale(2)" fill="rgba(225, 225, 225, 0.2)"></use><use xlink:href="#SvgjsG1713" transform="translate(648, 144) scale(2)" fill="rgba(225, 225, 225, 0.2)"></use><use xlink:href="#SvgjsG1699" transform="translate(648, 216) scale(2)" fill="rgba(225, 225, 225, 0.2)"></use><use xlink:href="#SvgjsG1701" transform="translate(648, 288) scale(2)" fill="rgba(225, 225, 225, 0.2)"></use><use xlink:href="#SvgjsG1710" transform="translate(648, 360) scale(2)" fill="rgba(225, 225, 225, 0.2)"></use><use xlink:href="#SvgjsG1712" transform="translate(648, 432) scale(2)" fill="rgba(225, 225, 225, 0.2)"></use><use xlink:href="#SvgjsG1701" transform="translate(648, 504) scale(2)" fill="rgba(225, 225, 225, 0.2)"></use></g></defs></svg>